<svg width="416" height="360" viewBox="0 0 416 360" fill="none" xmlns="http://www.w3.org/2000/svg">
<path d="M256.021 0.00187723L207.987 83.1385L159.953 0.00187723H-0.0078125L207.987 359.998L415.982 0.00187723H256.021Z" fill="#41B883"/>
<path d="M256.021 0.00183722L207.987 83.1385L159.953 0.00183722H83.1901L207.987 215.995L332.784 0.00183722H256.021Z" fill="#34495E"/>
<path d="M45.1172 264.965V283H34.5703V231.812H54.5391C58.3828 231.812 61.7578 232.516 64.6641 233.922C67.5938 235.328 69.8438 237.332 71.4141 239.934C72.9844 242.512 73.7695 245.453 73.7695 248.758C73.7695 253.773 72.0469 257.734 68.6016 260.641C65.1797 263.523 60.4336 264.965 54.3633 264.965H45.1172ZM45.1172 256.422H54.5391C57.3281 256.422 59.4492 255.766 60.9023 254.453C62.3789 253.141 63.1172 251.266 63.1172 248.828C63.1172 246.32 62.3789 244.293 60.9023 242.746C59.4258 241.199 57.3867 240.402 54.7852 240.355H45.1172V256.422ZM99.9961 264.262H91.5938V283H81.0469V231.812H100.066C106.113 231.812 110.777 233.16 114.059 235.855C117.34 238.551 118.98 242.359 118.98 247.281C118.98 250.773 118.219 253.691 116.695 256.035C115.195 258.355 112.91 260.207 109.84 261.59L120.914 282.508V283H109.594L99.9961 264.262ZM91.5938 255.719H100.102C102.75 255.719 104.801 255.051 106.254 253.715C107.707 252.355 108.434 250.492 108.434 248.125C108.434 245.711 107.742 243.812 106.359 242.43C105 241.047 102.902 240.355 100.066 240.355H91.5938V255.719ZM157.828 260.816H137.578V274.527H161.344V283H127.031V231.812H161.273V240.355H137.578V252.555H157.828V260.816ZM198.328 262.082H178.078V283H167.531V231.812H200.859V240.355H178.078V253.574H198.328V262.082ZM237.773 260.816H217.523V274.527H241.289V283H206.977V231.812H241.219V240.355H217.523V252.555H237.773V260.816ZM286.711 240.355H271.031V283H260.484V240.355H245.016V231.812H286.711V240.355ZM331.957 265.949C331.559 271.457 329.52 275.793 325.84 278.957C322.184 282.121 317.355 283.703 311.355 283.703C304.793 283.703 299.625 281.5 295.852 277.094C292.102 272.664 290.227 266.594 290.227 258.883V255.754C290.227 250.832 291.094 246.496 292.828 242.746C294.562 238.996 297.035 236.125 300.246 234.133C303.48 232.117 307.23 231.109 311.496 231.109C317.402 231.109 322.16 232.691 325.77 235.855C329.379 239.02 331.465 243.461 332.027 249.18H321.48C321.223 245.875 320.297 243.484 318.703 242.008C317.133 240.508 314.73 239.758 311.496 239.758C307.98 239.758 305.344 241.023 303.586 243.555C301.852 246.062 300.961 249.965 300.914 255.262V259.129C300.914 264.66 301.746 268.703 303.41 271.258C305.098 273.812 307.746 275.09 311.355 275.09C314.613 275.09 317.039 274.352 318.633 272.875C320.25 271.375 321.176 269.066 321.41 265.949H331.957ZM380.543 283H369.996V261.062H349.43V283H338.883V231.812H349.43V252.555H369.996V231.812H380.543V283Z" fill="#34495E"/>
</svg>
